<svg width="240" height="240" viewBox="0 0 240 240" fill="none" xmlns="http://www.w3.org/2000/svg">
<rect width="240" height="240" fill="white"/>
<path d="M110.942 73.8C113.582 73.8 115.702 74.68 117.302 76.44C118.982 78.12 119.822 80.32 119.822 83.04V151.2C119.822 153.84 119.062 155.92 117.542 157.44C116.022 158.96 114.022 159.72 111.542 159.72C109.142 159.72 107.182 158.96 105.662 157.44C104.142 155.92 103.382 153.84 103.382 151.2V108.84L86.3419 140.88C85.2219 142.96 83.9819 144.48 82.6219 145.44C81.3419 146.4 79.7819 146.88 77.9419 146.88C76.1819 146.88 74.6219 146.4 73.2619 145.44C71.9019 144.48 70.6619 142.96 69.5419 140.88L52.5019 109.44V151.2C52.5019 153.76 51.7419 155.84 50.2219 157.44C48.7019 158.96 46.7019 159.72 44.2219 159.72C41.8219 159.72 39.8619 158.96 38.3419 157.44C36.8219 155.92 36.0619 153.84 36.0619 151.2V83.04C36.0619 80.32 36.8619 78.12 38.4619 76.44C40.1419 74.68 42.3019 73.8 44.9419 73.8C48.7819 73.8 51.7019 75.84 53.7019 79.92L78.0619 126.12L102.302 79.92C104.462 75.84 107.342 73.8 110.942 73.8ZM206.198 147.12C207.398 148.88 207.998 150.6 207.998 152.28C207.998 154.52 207.078 156.36 205.238 157.8C203.478 159.24 201.398 159.96 198.997 159.96C197.478 159.96 195.998 159.6 194.557 158.88C193.118 158.16 191.918 157.04 190.958 155.52L175.118 132C173.758 129.92 172.318 128.44 170.798 127.56C169.278 126.6 167.358 126.12 165.038 126.12H155.318V150.36C155.318 153.24 154.478 155.52 152.798 157.2C151.198 158.88 148.998 159.72 146.198 159.72C143.318 159.72 141.038 158.88 139.358 157.2C137.678 155.52 136.838 153.24 136.838 150.36V83.16C136.838 80.36 137.598 78.2 139.118 76.68C140.638 75.16 142.798 74.4 145.598 74.4H175.718C185.638 74.4 193.118 76.6 198.158 81C203.278 85.32 205.838 91.6 205.838 99.84C205.838 106.32 204.038 111.72 200.438 116.04C196.838 120.36 191.758 123.2 185.198 124.56C187.598 125.04 189.718 126 191.558 127.44C193.478 128.8 195.318 130.8 197.078 133.44L206.198 147.12ZM172.958 111.96C178.318 111.96 182.198 111.04 184.598 109.2C186.998 107.28 188.198 104.32 188.198 100.32C188.198 96.24 186.998 93.28 184.598 91.44C182.198 89.6 178.318 88.68 172.958 88.68H155.078V111.96H172.958Z" fill="#003B36"/>
</svg>
